<svg xmlns="http://www.w3.org/2000/svg" x="0px" y="0px" width="100" height="100" viewBox="0 0 48 48">
<path fill="#FFC107" d="M43.611,20.083H42V20H24v8h11.303c-1.649,4.657-6.08,8-11.303,8c-6.627,0-12-5.373-12-12c0-6.627,5.373-12,12-12c3.059,0,5.842,1.154,8,3.029V10.18c-3.482-3.184-7.989-5.18-13-5.18c-11.045,0-20,8.955-20,20s8.955,20,20,20s20-8.955,20-20C44,22.659,43.862,21.35,43.611,20.083z"></path><path fill="#FF3D00" d="M6.306,14.691L1.395,17.508C3.353,13.564,7.19,10.53,12,10.53c7.945,0,13.643,6.718,13.643,6.718L28.58,12.61C25.704,9.053,20.406,5,12,5C6.877,5,2.59,8.074,0.306,12.691L6.306,14.691z"></path><path fill="#4CAF50" d="M24,44c5.166,0,9.86-1.977,13.409-5.192L33.16,34.06C30.463,36.887,27.011,38.5,24,38.5c-5.166,0-9.86-1.977-13.409-5.192L10.395,35.508C13.353,39.436,17.19,42.47,22,42.47C27.123,42.47,31.41,39.396,33.694,34.709L24,44z"></path><path fill="#1976D2" d="M43.611,20.083H42V20H24v8h11.303c-0.792,2.237-2.231,4.117-4.087,5.571c0.001-0.001,0.002-0.002,0.003-0.003l-4.087,4.087C34.704,39.053,39.994,43,48,43C42.877,43,38.59,39.926,36.306,35.309L43.611,20.083z"></path>
</svg>