<?xml version="1.0" encoding="UTF-8"?>
<svg version="1.1" xmlns="http://www.w3.org/2000/svg" width="500" height="500">
<path d="M0 0 C9.24 0 18.48 0 28 0 C28.99 2.64 29.98 5.28 31 8 C31.97716309 10.02180291 32.95615506 12.04272357 33.9375 14.0625 C36.17519894 19.28600433 36.17519894 19.28600433 35.4296875 22.32421875 C34.3125 24.25 34.3125 24.25 32 27 C31.34 27 30.68 27 30 27 C29.896875 27.57105469 29.79375 28.14210937 29.6875 28.73046875 C28.88268375 31.38727693 27.6463991 33.08432044 26 35.3125 C23.20881968 39.34568879 22.20726247 42.12933198 22 47 C22.66 47 23.32 47 24 47 C24 47.66 24 48.32 24 49 C25.09699219 48.43410156 26.19398438 47.86820313 27.32421875 47.28515625 C28.77848273 46.54395074 30.23291893 45.80308305 31.6875 45.0625 C32.40873047 44.68931641 33.12996094 44.31613281 33.87304688 43.93164062 C37.56505742 42.06034761 40.83693096 40.51730444 45 40 C45.74443359 41.70542969 45.74443359 41.70542969 46.50390625 43.4453125 C50.34661495 52.19508413 54.31400639 60.81132915 58.75 69.27734375 C60 72 60 72 60 75 C60.66 75 61.32 75 62 75 C62.5878125 76.36125 62.5878125 76.36125 63.1875 77.75 C63.45949219 78.3790625 63.73148437 79.008125 64.01171875 79.65625 C64.7636727 81.43954001 65.4910597 83.23321142 66.20703125 85.03125 C66.63371094 86.0934375 67.06039062 87.155625 67.5 88.25 C68.10328125 89.77367187 68.10328125 89.77367187 68.71875 91.328125 C69.93608607 93.86671608 71.03919261 95.07151361 73 97 C74.01286667 99.65619116 74.45563446 102.18744471 75 105 C74 106 74 106 71.13256836 106.11352539 C69.88096924 106.10828857 68.62937012 106.10305176 67.33984375 106.09765625 C66.34314415 106.09553383 66.34314415 106.09553383 65.3263092 106.09336853 C63.19666101 106.08775518 61.06711661 106.07520054 58.9375 106.0625 C57.49674631 106.05748671 56.05599097 106.05292351 54.61523438 106.04882812 C51.07678898 106.03778145 47.53840461 106.02050792 44 106 C43.03391677 104.14985947 42.0775093 102.29466527 41.125 100.4375 C40.59132813 99.40496094 40.05765625 98.37242187 39.5078125 97.30859375 C38 94 38 94 36 87 C24.12 87 12.24 87 0 87 C-0.33 86.34 -0.66 85.68 -1 85 C-0.109375 82.8984375 -0.109375 82.8984375 1.25 80.375 C2.91539713 77.18682263 4.42368372 74.07831207 5.625 70.6875 C7.88 64.64 7.88 64.64 10 62 C13.35546875 61.29296875 13.35546875 61.29296875 17.1875 61.1875 C18.45980469 61.13980469 19.73210937 61.09210938 21.04296875 61.04296875 C22.01878906 61.02878906 22.99460937 61.01460938 24 61 C21.33031726 54.53367828 18.64076707 48.09035107 15.69921875 41.7421875 C15 40 15 40 15 38 C14.34 38 13.68 38 13 38 C12.87036865 38.57838623 12.7407373 39.15677246 12.60717773 39.75268555 C12.01074344 41.96023586 11.23901655 43.88148112 10.28515625 45.95703125 C9.93372559 46.72829346 9.58229492 47.49955566 9.22021484 48.29418945 C8.83816895 49.12523193 8.45612305 49.95627441 8.0625 50.8125 C4.58646671 58.44582401 1.19838751 66.11153216 -2.125 73.8125 C-6.82362697 84.67581243 -11.70579381 95.41158762 -17 106 C-26.9 106 -36.8 106 -47 106 C-45.87531279 99.25187674 -45.87531279 99.25187674 -44.3984375 96.22265625 C-44.07230469 95.54267578 -43.74617187 94.86269531 -43.41015625 94.16210938 C-42.89775391 93.12280273 -42.89775391 93.12280273 -42.375 92.0625 C-41.715534 90.69951461 -41.05670912 89.33621888 -40.3984375 87.97265625 C-40.03065186 87.21460693 -39.66286621 86.45655762 -39.28393555 85.67553711 C-36.46882099 79.80924306 -33.74267668 73.90042824 -31 68 C-30.70508667 67.36556976 -30.41017334 66.73113953 -30.10632324 66.07748413 C-29.51866633 64.81320095 -28.9310401 63.5489035 -28.34344482 62.28459167 C-27.16964284 59.75949041 -25.99495752 57.23480066 -24.82006836 54.71020508 C-24.22931728 53.43996769 -23.63915254 52.16945745 -23.04956055 50.89868164 C-19.55472949 43.36772933 -15.98977625 35.8850925 -12.21508789 28.48876953 C-10.89066595 25.77605962 -9.84533078 23.04679612 -8.84765625 20.203125 C-7.25245805 16.05707991 -5.29325747 12.06837147 -3.40234375 8.05078125 C-2.18554553 5.40365198 -1.08200907 2.70502268 0 0 Z " fill="#1F498C" transform="translate(200,197)"/>
<path d="M0 0 C3.96930989 -0.02465881 7.93859034 -0.04284023 11.90795898 -0.05493164 C13.25920386 -0.05997057 14.61044326 -0.06680177 15.96166992 -0.07543945 C17.90020434 -0.08752419 19.838778 -0.09269828 21.77734375 -0.09765625 C23.52905884 -0.10551147 23.52905884 -0.10551147 25.31616211 -0.11352539 C28 0 28 0 29 1 C29.15980437 3.44608998 29.25929447 5.86731058 29.31640625 8.31640625 C29.33718735 9.04746078 29.35796844 9.77851532 29.37937927 10.53172302 C29.44495024 12.87521656 29.50379432 15.21882539 29.5625 17.5625 C29.60567808 19.14779855 29.64929213 20.73308529 29.69335938 22.31835938 C29.8006392 26.21212037 29.9018849 30.10599772 30 34 C30.66 34 31.32 34 32 34 C32 33.34 32 32.68 32 32 C32.66 32 33.32 32 34 32 C34.33837891 31.19755859 34.33837891 31.19755859 34.68359375 30.37890625 C36.42648009 27.22929858 38.7121808 24.6401266 41.0625 21.9375 C42.05411444 20.78187516 43.04498779 19.62561403 44.03515625 18.46875 C44.53160645 17.88996094 45.02805664 17.31117188 45.53955078 16.71484375 C51.87742903 9.66127786 51.87742903 9.66127786 57.14770508 1.87817383 C59 0 59 0 62.36987305 -0.45410156 C63.75065026 -0.45346993 65.13153079 -0.43096497 66.51171875 -0.390625 C67.23994339 -0.38496521 67.96816803 -0.37930542 68.71846008 -0.37347412 C71.04214498 -0.35110029 73.36428207 -0.30090669 75.6875 -0.25 C77.26364959 -0.22993609 78.83982337 -0.21168512 80.41601562 -0.1953125 C84.27793924 -0.15123283 88.1387073 -0.08220225 92 0 C92 3 92 3 91 5 C90.34 5 89.68 5 89 5 C88.34 6.65 87.68 8.3 87 10 C86.34 10 85.68 10 85 10 C85 10.66 85 11.32 85 12 C84.34 12 83.68 12 83 12 C82.75378906 12.72960937 82.50757813 13.45921875 82.25390625 14.2109375 C80.86442138 17.3015674 79.26386052 19.1714487 76.9375 21.625 C70.19643953 28.90794636 63.90276689 36.51714906 58.19140625 44.63671875 C57.79824219 45.08660156 57.40507812 45.53648437 57 46 C56.34 46 55.68 46 55 46 C54.34 48.31 53.68 50.62 53 53 C53.66 53 54.32 53 55 53 C56.5078125 54.6796875 56.5078125 54.6796875 58.125 56.875 C58.66382813 57.59429687 59.20265625 58.31359375 59.7578125 59.0546875 C61 61 61 61 61 63 C61.66 63 62.32 63 63 63 C64.4453125 64.6171875 64.4453125 64.6171875 66.125 66.875 C68.75050678 70.34832667 71.40243171 73.78944602 74.125 77.1875 C75.11886719 78.43080078 75.11886719 78.43080078 76.1328125 79.69921875 C77.72540275 81.66163644 79.35085595 83.5853158 81 85.5 C83 88 83 88 83 90 C83.66 90 84.32 90 85 90 C86.3671875 91.5390625 86.3671875 91.5390625 87.875 93.625 C88.4009375 94.34945312 88.926875 95.07390625 89.46875 95.8203125 C91.36312 98.5168902 93.20400212 101.23692634 95 104 C94.67 104.66 94.34 105.32 94 106 C89.3552879 106.0988803 84.71118827 106.1714715 80.06567383 106.21972656 C78.48548715 106.23984186 76.90537491 106.26713804 75.32543945 106.30175781 C73.05401252 106.35028343 70.78356942 106.37296809 68.51171875 106.390625 C67.45219246 106.42159271 67.45219246 106.42159271 66.3712616 106.45318604 C63.08794369 106.45468798 61.44604712 106.43017808 59.03051758 104.10058594 C58 102 58 102 58 100 C57.34 100 56.68 100 56 100 C54.33791381 98.01207317 52.78451915 96.02046662 51.25 93.9375 C50.35320155 92.74095729 49.45477193 91.54563533 48.5546875 90.3515625 C48.11866211 89.7730957 47.68263672 89.19462891 47.23339844 88.59863281 C45.69075962 86.59918726 44.05295185 84.69919227 42.375 82.8125 C40 80 40 80 40 78 C39.34 78 38.68 78 38 78 C36.375 75.5 36.375 75.5 35 73 C31.88214887 73.64644661 31.88214887 73.64644661 31 76 C30.34 76 29.68 76 29 76 C29 84.58 29 93.16 29 102 C27.515 101.505 27.515 101.505 26 101 C25.67 99.35 25.34 97.7 25 96 C24.34 96 23.68 96 23 96 C22.731875 95.319375 22.46375 94.63875 22.1875 93.9375 C19.79355924 88.01564654 17.19729135 82.25665863 14.3125 76.5625 C12.87420456 73.70873364 11.43678943 70.85452488 10 68 C9.55833496 67.1244043 9.11666992 66.24880859 8.66162109 65.34667969 C7.2597 62.55066127 5.87824458 59.74525328 4.5 56.9375 C4.05438721 56.05715088 3.60877441 55.17680176 3.1496582 54.26977539 C0.69310033 49.22208677 -0.54930928 45.6227908 0 40 C5.71721494 40.74804681 10.04023093 43.73451659 14.94140625 46.6015625 C17.81025449 48.234651 17.81025449 48.234651 20.40234375 47.7109375 C22.13779393 47.14531018 22.13779393 47.14531018 22.75 45.4375 C23.09440561 42.07954527 21.71913227 40.43691657 19.91015625 37.68359375 C19 36 19 36 19 33 C18.34 33 17.68 33 17 33 C16.5153125 32.14019531 16.030625 31.28039062 15.53125 30.39453125 C14.85462251 29.20026245 14.17750081 28.00627358 13.5 26.8125 C13.14413818 26.18408203 12.78827637 25.55566406 12.42163086 24.90820312 C10.58608986 21.69047036 8.7146708 18.51038359 6.72265625 15.38671875 C6.36042969 14.81655029 5.99820312 14.24638184 5.625 13.65893555 C4.61364581 12.07985657 3.5903328 10.5084558 2.56640625 8.9375 C0.92652404 5.86220967 0.48831195 3.42025908 0 0 Z " fill="#2495B9" transform="translate(253,197)"/>
<path d="M0 0 C9.24 0 18.48 0 28 0 C28.99 2.64 29.98 5.28 31 8 C31.97716309 10.02180291 32.95615506 12.04272357 33.9375 14.0625 C36.17519894 19.28600433 36.17519894 19.28600433 35.4296875 22.32421875 C34.3125 24.25 34.3125 24.25 32 27 C31.34 27 30.68 27 30 27 C29.8453125 27.85658203 29.8453125 27.85658203 29.6875 28.73046875 C28.88268375 31.38727693 27.6463991 33.08432044 26 35.3125 C23.20881968 39.34568879 22.20726247 42.12933198 22 47 C22.66 47 23.32 47 24 47 C24 47.66 24 48.32 24 49 C25.09699219 48.43410156 26.19398438 47.86820313 27.32421875 47.28515625 C28.77848273 46.54395074 30.23291893 45.80308305 31.6875 45.0625 C32.7693457 44.50272461 32.7693457 44.50272461 33.87304688 43.93164062 C37.56505742 42.06034761 40.83693096 40.51730444 45 40 C45.49628906 41.13695312 45.99257812 42.27390625 46.50390625 43.4453125 C50.34661495 52.19508413 54.31400639 60.81132915 58.75 69.27734375 C60 72 60 72 60 75 C60.66 75 61.32 75 62 75 C62.5878125 76.36125 62.5878125 76.36125 63.1875 77.75 C63.45949219 78.3790625 63.73148437 79.008125 64.01171875 79.65625 C64.7636727 81.43954001 65.4910597 83.23321142 66.20703125 85.03125 C66.63371094 86.0934375 67.06039062 87.155625 67.5 88.25 C68.10328125 89.77367187 68.10328125 89.77367187 68.71875 91.328125 C69.93608607 93.86671608 71.03919261 95.07151361 73 97 C74.01286667 99.65619116 74.45563446 102.18744471 75 105 C74 106 74 106 71.13256836 106.11352539 C69.88096924 106.10828857 68.62937012 106.10305176 67.33984375 106.09765625 C66.34314415 106.09553383 66.34314415 106.09553383 65.3263092 106.09336853 C63.19666101 106.08775518 61.06711661 106.07520054 58.9375 106.0625 C57.49674631 106.05748671 56.05599097 106.05292351 54.61523438 106.04882812 C51.07678898 106.03778145 47.53840461 106.02050792 44 106 C43.03391677 104.14985947 42.0775093 102.29466527 41.125 100.4375 C40.32449219 98.88869141 40.32449219 98.88869141 39.5078125 97.30859375 C38 94 38 94 36 87 C24.12 87 12.24 87 0 87 C-0.33 86.34 -0.66 85.68 -1 85 C-0.109375 82.8984375 -0.109375 82.8984375 1.25 80.375 C2.91539713 77.18682263 4.42368372 74.07831207 5.625 70.6875 C7.88 64.64 7.88 64.64 10 62 C13.35546875 61.29296875 13.35546875 61.29296875 17.1875 61.1875 C18.45980469 61.13980469 19.73210937 61.09210938 21.04296875 61.04296875 C22.01878906 61.02878906 22.99460938 61.01460938 24 61 C21.33031726 54.53367828 18.64076707 48.09035107 15.69921875 41.7421875 C15 40 15 40 15 38 C14.34 38 13.68 38 13 38 C12.89816406 38.51046875 12.79632813 39.0209375 12.69140625 39.546875 C11.74320834 42.91110263 10.33686428 46.05516367 8.9375 49.25 C8.65583984 49.8996875 8.37417969 50.549375 8.08398438 51.21875 C7.3920615 52.81369086 6.696401 54.40700934 6 56 C5.34 55.01 4.68 54.02 4 53 C4.875 49.9375 4.875 49.9375 6 47 C6 46.34 6 45.68 6 45 C6.99 45 7.98 45 9 45 C8.67 44.01 8.34 43.02 8 42 C7.96045766 39.66700175 7.95598268 37.33291811 8 35 C13.33333333 35 18.66666667 35 24 35 C24.78242744 32.044163 25.00748876 30.04493258 24.5 27 C23.97428083 23.84568496 24.35242087 22.09398916 25 19 C25.20195732 14.77385604 25.34616803 11.0385041 24 7 C24.66 6.34 25.32 5.68 26 5 C24.00896808 2.56164332 24.00896808 2.56164332 20.0859375 2.8046875 C18.51550649 2.81799624 16.94513779 2.84186398 15.375 2.875 C14.57320312 2.88402344 13.77140625 2.89304688 12.9453125 2.90234375 C10.96341477 2.92593777 8.98167019 2.96180935 7 3 C6.87625 3.61875 6.7525 4.2375 6.625 4.875 C5.71992876 7.95224221 3.69241691 9.29293628 1.375 11.5 C-1.22958315 13.66695339 -1.22958315 13.66695339 -1 16 C-1.78375 16.391875 -2.5675 16.78375 -3.375 17.1875 C-6.90446737 19.62451318 -7.15035756 21.90626822 -8 26 C-8.99 26 -9.98 26 -11 26 C-8.82425446 19.83538762 -6.18587997 13.96491037 -3.40234375 8.05078125 C-2.18554553 5.40365198 -1.08200907 2.70502268 0 0 Z " fill="#255695" transform="translate(200,197)"/>
<path d="M0 0 C3.96930989 -0.02465881 7.93859034 -0.04284023 11.90795898 -0.05493164 C13.25920386 -0.05997057 14.61044326 -0.06680177 15.96166992 -0.07543945 C17.90020434 -0.08752419 19.838778 -0.09269828 21.77734375 -0.09765625 C23.52905884 -0.10551147 23.52905884 -0.10551147 25.31616211 -0.11352539 C28 0 28 0 29 1 C29.16003488 3.66426685 29.25942889 6.30560428 29.31640625 8.97265625 C29.33718735 9.77029892 29.35796844 10.56794159 29.37937927 11.38975525 C29.44496158 13.94724611 29.50379967 16.5048428 29.5625 19.0625 C29.60567699 20.79232882 29.64929101 22.52214679 29.69335938 24.25195312 C29.80065172 28.5011926 29.90189426 32.7505389 30 37 C29.01 37.495 29.01 37.495 28 38 C27.34 37.34 26.68 36.68 26 36 C26 34.68 26 33.36 26 32 C25.01 32 24.02 32 23 32 C23.33 35.63 23.66 39.26 24 43 C19 36.33333333 19 36.33333333 19 33 C18.34 33 17.68 33 17 33 C16.5153125 32.14019531 16.030625 31.28039062 15.53125 30.39453125 C14.85462251 29.20026245 14.17750081 28.00627358 13.5 26.8125 C13.14413818 26.18408203 12.78827637 25.55566406 12.42163086 24.90820312 C10.58608986 21.69047036 8.7146708 18.51038359 6.72265625 15.38671875 C6.36042969 14.81655029 5.99820312 14.24638184 5.625 13.65893555 C4.61364581 12.07985657 3.5903328 10.5084558 2.56640625 8.9375 C0.92652404 5.86220967 0.48831195 3.42025908 0 0 Z " fill="#23A4C1" transform="translate(253,197)"/>
<path d="M0 0 C0.66 0 1.32 0 2 0 C4 3 4 3 4 6 C4.66 6 5.32 6 6 6 C7.41015625 8.09765625 7.41015625 8.09765625 9.0625 11.0625 C9.67609375 12.14402344 10.2896875 13.22554687 10.921875 14.33984375 C11.25380859 14.92749512 11.58574219 15.51514648 11.92773438 16.12060547 C13.84529457 19.48157504 15.82775858 22.80340699 17.8125 26.125 C18.19736572 26.77605713 18.58223145 27.42711426 18.97875977 28.09790039 C20.50153757 30.64776974 21.89109015 32.89109015 24 35 C24 35.99 24 36.98 24 38 C21.17863365 37.38204587 18.81126734 36.51576054 16.25 35.1875 C15.5590625 34.83429688 14.868125 34.48109375 14.15625 34.1171875 C12.71875 33.37239583 11.28125 32.62760417 9.84375 31.8828125 C9.1528125 31.52960938 8.461875 31.17640625 7.75 30.8125 C7.12609375 30.48894531 6.5021875 30.16539062 5.859375 29.83203125 C1.94202833 28.04608017 1.94202833 28.04608017 -2.16650391 28.80444336 C-2.92882324 29.22862549 -3.69114258 29.65280762 -4.4765625 30.08984375 C-5.311875 30.54423828 -6.1471875 30.99863281 -7.0078125 31.46679688 C-8.30332031 32.19479492 -8.30332031 32.19479492 -9.625 32.9375 C-11.34447007 33.88753265 -13.06573962 34.83431799 -14.7890625 35.77734375 C-15.54912598 36.20265381 -16.30918945 36.62796387 -17.09228516 37.06616211 C-19 38 -19 38 -21 38 C-20.41892368 34.2397015 -19.34800504 31.46964968 -17.4375 28.1875 C-16.98246094 27.39730469 -16.52742187 26.60710937 -16.05859375 25.79296875 C-15.70925781 25.20128906 -15.35992187 24.60960937 -15 24 C-14.34 24 -13.68 24 -13 24 C-12.91363281 23.48179687 -12.82726562 22.96359375 -12.73828125 22.4296875 C-11.71202101 19.05225963 -9.95911496 16.15378638 -8.1875 13.125 C-7.84396484 12.52558594 -7.50042969 11.92617187 -7.14648438 11.30859375 C-4.90773913 7.43594251 -2.6371047 3.61565299 0 0 Z " fill="#1B85AA" transform="translate(248,203)"/>
<path d="M0 0 C9.24 0 18.48 0 28 0 C28.99 2.64 29.98 5.28 31 8 C31.97716309 10.02180291 32.95615506 12.04272357 33.9375 14.0625 C36.17519894 19.28600433 36.17519894 19.28600433 35.4296875 22.32421875 C34.3125 24.25 34.3125 24.25 32 27 C31.34 27 30.68 27 30 27 C29.8453125 27.85658203 29.8453125 27.85658203 29.6875 28.73046875 C28.88268375 31.38727693 27.6463991 33.08432044 26 35.3125 C23.20881968 39.34568879 22.20726247 42.12933198 22 47 C22.66 47 23.32 47 24 47 C23.67 47.99 23.34 48.98 23 50 C22.01 50.33 21.02 50.66 20 51 C19.16209211 49.21046815 18.32980604 47.41830305 17.5 45.625 C17.0359375 44.62726563 16.571875 43.62953125 16.09375 42.6015625 C15 40 15 40 15 38 C14.34 38 13.68 38 13 38 C12.89816406 38.51046875 12.79632813 39.0209375 12.69140625 39.546875 C11.74320834 42.91110263 10.33686428 46.05516367 8.9375 49.25 C8.65583984 49.8996875 8.37417969 50.549375 8.08398438 51.21875 C7.3920615 52.81369086 6.696401 54.40700934 6 56 C5.34 55.01 4.68 54.02 4 53 C4.875 49.9375 4.875 49.9375 6 47 C6 46.34 6 45.68 6 45 C6.99 45 7.98 45 9 45 C8.67 44.01 8.34 43.02 8 42 C7.96045766 39.66700175 7.95598268 37.33291811 8 35 C13.33333333 35 18.66666667 35 24 35 C24.78242744 32.044163 25.00748876 30.04493258 24.5 27 C23.97428083 23.84568496 24.35242087 22.09398916 25 19 C25.20195732 14.77385604 25.34616803 11.0385041 24 7 C24.66 6.34 25.32 5.68 26 5 C24.00896808 2.56164332 24.00896808 2.56164332 20.0859375 2.8046875 C18.51550649 2.81799624 16.94513779 2.84186398 15.375 2.875 C14.57320312 2.88402344 13.77140625 2.89304688 12.9453125 2.90234375 C10.96341477 2.92593777 8.98167019 2.96180935 7 3 C6.87625 3.61875 6.7525 4.2375 6.625 4.875 C5.71992876 7.95224221 3.69241691 9.29293628 1.375 11.5 C-1.22958315 13.66695339 -1.22958315 13.66695339 -1 16 C-1.78375 16.391875 -2.5675 16.78375 -3.375 17.1875 C-6.90446737 19.62451318 -7.15035756 21.90626822 -8 26 C-8.99 26 -9.98 26 -11 26 C-8.82425446 19.83538762 -6.18587997 13.96491037 -3.40234375 8.05078125 C-2.18554553 5.40365198 -1.08200907 2.70502268 0 0 Z " fill="#1C80AB" transform="translate(200,197)"/>
<path d="M0 0 C1.5532418 0.05023002 3.10664007 0.09584535 4.66015625 0.13671875 C8.44400529 0.24625285 12.22026247 0.41833535 16 0.625 C16 3.625 16 3.625 15 5.625 C14.34 5.625 13.68 5.625 13 5.625 C12.34 7.275 11.68 8.925 11 10.625 C10.34 10.625 9.68 10.625 9 10.625 C9 11.285 9 11.945 9 12.625 C8.34 12.625 7.68 12.625 7 12.625 C6.75636719 13.35203125 6.51273437 14.0790625 6.26171875 14.828125 C4.84603979 17.96628641 3.17787286 19.88341964 0.8125 22.375 C-2.94832413 26.42137944 -6.38151792 30.58453092 -9.6875 35.0078125 C-10.120625 35.54148438 -10.55375 36.07515625 -11 36.625 C-11.33 36.625 -11.66 36.625 -12 36.625 C-12 34.975 -12 33.325 -12 31.625 C-11.01 31.625 -10.02 31.625 -9 31.625 C-9.33 30.635 -9.66 29.645 -10 28.625 C-9.01 28.295 -8.02 27.965 -7 27.625 C-7.66 24.985 -8.32 22.345 -9 19.625 C-7.72125 19.41875 -6.4425 19.2125 -5.125 19 C-2.92186032 18.54016467 -2.92186032 18.54016467 -1 17.625 C0.61147442 14.63071856 0.61147442 14.63071856 1 11.625 C2.65 11.295 4.3 10.965 6 10.625 C6.33 7.985 6.66 5.345 7 2.625 C3.74899223 2.7060513 0.49983665 2.81887649 -2.75 2.9375 C-3.67039062 2.96005859 -4.59078125 2.98261719 -5.5390625 3.00585938 C-6.42851562 3.04130859 -7.31796875 3.07675781 -8.234375 3.11328125 C-9.45979004 3.15255737 -9.45979004 3.15255737 -10.70996094 3.19262695 C-13.45994617 3.71184058 -14.90229473 4.81583451 -17 6.625 C-15.35 6.625 -13.7 6.625 -12 6.625 C-11.67 7.615 -11.34 8.605 -11 9.625 C-11.66 9.5425 -12.32 9.46 -13 9.375 C-17.22901776 9.72741815 -20.63799728 10.99819605 -24 13.625 C-24.74259349 15.93529085 -25.411438 18.270752 -26 20.625 C-29.125 23.0625 -29.125 23.0625 -32 24.625 C-32 23.965 -32 23.305 -32 22.625 C-32.66 22.295 -33.32 21.965 -34 21.625 C-33.443125 20.94695312 -32.88625 20.26890625 -32.3125 19.5703125 C-31.549375 18.63960937 -30.78625 17.70890625 -30 16.75 C-28.8240346 15.31679217 -27.64511768 13.88564489 -26.4375 12.47900391 C-24.88996771 10.56894704 -24.88996771 10.56894704 -23.5 8.03271484 C-17.47822183 -1.43511997 -10.10469163 -0.56912716 0 0 Z " fill="#26BCC9" transform="translate(329,196.375)"/>
<path d="M0 0 C0.33 0.66 0.66 1.32 1 2 C1.66 2 2.32 2 3 2 C3 2.66 3 3.32 3 4 C3.99 4 4.98 4 6 4 C8.1875 5.6875 8.1875 5.6875 10 8 C10.25 10.75 10.25 10.75 10 13 C10.66 13 11.32 13 12 13 C12.33 13.99 12.66 14.98 13 16 C12.34 16 11.68 16 11 16 C11.33 17.32 11.66 18.64 12 20 C8.625 19.75 8.625 19.75 5 19 C3.5625 16.9375 3.5625 16.9375 3 15 C0.02252712 15.7339519 0.02252712 15.7339519 -1.5 17.5625 C-3 19 -3 19 -6 19 C-6 17.35 -6 15.7 -6 14 C-8.7839183 15.39195915 -8.97898997 17.15575779 -10 20 C-10.99 19.34 -11.98 18.68 -13 18 C-12.34 16.68 -11.68 15.36 -11 14 C-10.34 14 -9.68 14 -9 14 C-9.33 13.01 -9.66 12.02 -10 11 C-9.0625 8.8125 -9.0625 8.8125 -8 7 C-7.731875 7.639375 -7.46375 8.27875 -7.1875 8.9375 C-6.11332248 11.33131686 -6.11332248 11.33131686 -3 12 C-3.33 11.443125 -3.66 10.88625 -4 10.3125 C-5.1309601 7.69715478 -5.15662974 5.8193354 -5 3 C-4.01 3 -3.02 3 -2 3 C-2 2.34 -2 1.68 -2 1 C-1.34 0.67 -0.68 0.34 0 0 Z " fill="#1C88B2" transform="translate(249,212)"/>
<path d="M0 0 C1.50964623 0.04519705 3.01942248 0.08625258 4.52929688 0.12304688 C8.2097542 0.22170724 11.88529319 0.37668623 15.5625 0.5625 C15.2325 1.5525 14.9025 2.5425 14.5625 3.5625 C14.5625 2.9025 14.5625 2.2425 14.5625 1.5625 C13.9025 1.5625 13.2425 1.5625 12.5625 1.5625 C12.5625 3.2125 12.5625 4.8625 12.5625 6.5625 C11.2425 6.2325 9.9225 5.9025 8.5625 5.5625 C8.5625 4.2425 8.5625 2.9225 8.5625 1.5625 C5.31149223 1.6435513 2.06233665 1.75637649 -1.1875 1.875 C-2.10789062 1.89755859 -3.02828125 1.92011719 -3.9765625 1.94335938 C-4.86601562 1.97880859 -5.75546875 2.01425781 -6.671875 2.05078125 C-7.89729004 2.09005737 -7.89729004 2.09005737 -9.14746094 2.13012695 C-11.89744617 2.64934058 -13.33979473 3.75333451 -15.4375 5.5625 C-13.7875 5.5625 -12.1375 5.5625 -10.4375 5.5625 C-10.1075 6.5525 -9.7775 7.5425 -9.4375 8.5625 C-10.0975 8.48 -10.7575 8.3975 -11.4375 8.3125 C-15.66651776 8.66491815 -19.07549728 9.93569605 -22.4375 12.5625 C-23.18009349 14.87279085 -23.848938 17.208252 -24.4375 19.5625 C-27.5625 22 -27.5625 22 -30.4375 23.5625 C-30.4375 22.9025 -30.4375 22.2425 -30.4375 21.5625 C-31.0975 21.2325 -31.7575 20.9025 -32.4375 20.5625 C-31.86902344 19.87285156 -31.30054688 19.18320313 -30.71484375 18.47265625 C-29.94269531 17.53292969 -29.17054688 16.59320313 -28.375 15.625 C-27.1914578 14.18654102 -26.00584695 12.74950429 -24.79467773 11.33422852 C-23.3423829 9.53207936 -23.3423829 9.53207936 -22.14477539 7.19506836 C-16.8061236 -1.68633972 -9.2347083 -0.48062803 0 0 Z " fill="#39BEC8" transform="translate(327.4375,197.4375)"/>
<path d="M0 0 C3.81185758 1.27061919 4.30075158 2.6211338 6.375 6 C6.98472656 6.98871094 7.59445312 7.97742188 8.22265625 8.99609375 C10.21529807 12.3638774 12.12504887 15.76502398 13.95703125 19.22265625 C14.99571892 21.16370916 14.99571892 21.16370916 17 23 C17 23.99 17 24.98 17 26 C14.19185894 25.38646959 11.85775605 24.53081312 9.3203125 23.1875 C8.63839844 22.83429688 7.95648438 22.48109375 7.25390625 22.1171875 C5.84075737 21.37560845 4.42927693 20.63084082 3.01953125 19.8828125 C-1.00405594 17.8066112 -4.42285302 16.45914954 -9 16 C-8.3125 14.0625 -8.3125 14.0625 -7 12 C-4.375 11.25 -4.375 11.25 -2 11 C-1.67 12.32 -1.34 13.64 -1 15 C0.65 15.33 2.3 15.66 4 16 C4.66 14.02 5.32 12.04 6 10 C5.34 10 4.68 10 4 10 C4 8.35 4 6.7 4 5 C2.68 4.34 1.36 3.68 0 3 C0 2.01 0 1.02 0 0 Z " fill="#4A9AB9" transform="translate(255,215)"/>
<path d="M0 0 C10 0 10 0 14 1 C14 4.63 14 8.26 14 12 C14.66 12 15.32 12 16 12 C15.67 12.99 15.34 13.98 15 15 C14.01 15.33 13.02 15.66 12 16 C11.16209211 14.21046815 10.32980604 12.41830305 9.5 10.625 C9.0359375 9.62726563 8.571875 8.62953125 8.09375 7.6015625 C7 5 7 5 7 3 C6.34 3 5.68 3 5 3 C4.89816406 3.51046875 4.79632813 4.0209375 4.69140625 4.546875 C3.74320834 7.91110263 2.33686428 11.05516367 0.9375 14.25 C0.65583984 14.8996875 0.37417969 15.549375 0.08398438 16.21875 C-0.6079385 17.81369086 -1.303599 19.40700934 -2 21 C-2.66 20.01 -3.32 19.02 -4 18 C-3.125 14.9375 -3.125 14.9375 -2 12 C-2 11.34 -2 10.68 -2 10 C-1.01 10 -0.02 10 1 10 C0.67 9.01 0.34 8.02 0 7 C-0.03954234 4.66700175 -0.04401732 2.33291811 0 0 Z " fill="#215E99" transform="translate(208,232)"/>
<path d="M0 0 C8.91 0 17.82 0 27 0 C26.67 1.32 26.34 2.64 26 4 C25.34 3.34 24.68 2.68 24 2 C21.0906442 1.85482256 18.280054 1.81369204 15.375 1.875 C14.57320312 1.88402344 13.77140625 1.89304688 12.9453125 1.90234375 C10.96341477 1.92593777 8.98167019 1.96180935 7 2 C6.87625 2.61875 6.7525 3.2375 6.625 3.875 C5.71992876 6.95224221 3.69241691 8.29293628 1.375 10.5 C-1.22958315 12.66695339 -1.22958315 12.66695339 -1 15 C-1.78375 15.391875 -2.5675 15.78375 -3.375 16.1875 C-6.90446737 18.62451318 -7.15035756 20.90626822 -8 25 C-8.99 25 -9.98 25 -11 25 C-7.96093772 16.38932354 -4.0811612 8.16232239 0 0 Z " fill="#1C72A6" transform="translate(200,198)"/>
<path d="M0 0 C0.66 0 1.32 0 2 0 C2.33 1.32 2.66 2.64 3 4 C2.34 4 1.68 4 1 4 C0.67 5.32 0.34 6.64 0 8 C0.66 8 1.32 8 2 8 C2.66 6.68 3.32 5.36 4 4 C4.66 4 5.32 4 6 4 C6.33 4.99 6.66 5.98 7 7 C6.67 7.66 6.34 8.32 6 9 C6.99 9.33 7.98 9.66 9 10 C6.2118978 11.5066972 3.41896042 13.00419804 0.625 14.5 C-0.1690625 14.92925781 -0.963125 15.35851562 -1.78125 15.80078125 C-2.92207031 16.40986328 -2.92207031 16.40986328 -4.0859375 17.03125 C-4.7876709 17.40830078 -5.4894043 17.78535156 -6.21240234 18.17382812 C-8 19 -8 19 -10 19 C-9.41892368 15.2397015 -8.34800504 12.46964968 -6.4375 9.1875 C-5.98246094 8.39730469 -5.52742187 7.60710937 -5.05859375 6.79296875 C-4.53458984 5.90544922 -4.53458984 5.90544922 -4 5 C-3.34 5 -2.68 5 -2 5 C-1.855625 4.360625 -1.71125 3.72125 -1.5625 3.0625 C-1 1 -1 1 0 0 Z " fill="#337EA7" transform="translate(237,222)"/>
<path d="M0 0 C3.96930989 -0.02465881 7.93859034 -0.04284023 11.90795898 -0.05493164 C13.25920386 -0.05997057 14.61044326 -0.06680177 15.96166992 -0.07543945 C17.90020434 -0.08752419 19.838778 -0.09269828 21.77734375 -0.09765625 C23.52905884 -0.10551147 23.52905884 -0.10551147 25.31616211 -0.11352539 C28 0 28 0 29 1 C29.16003488 3.66426685 29.25942889 6.30560428 29.31640625 8.97265625 C29.33718735 9.77029892 29.35796844 10.56794159 29.37937927 11.38975525 C29.44496158 13.94724611 29.50379967 16.5048428 29.5625 19.0625 C29.60567699 20.79232882 29.64929101 22.52214679 29.69335938 24.25195312 C29.80065172 28.5011926 29.90189426 32.7505389 30 37 C29.01 37.495 29.01 37.495 28 38 C27.31025945 25.97880747 26.88850184 14.04180152 27 2 C18.75 2 10.5 2 2 2 C2 2.99 2 3.98 2 5 C2.66 5.33 3.32 5.66 4 6 C4 6.99 4 7.98 4 9 C4.99 9.33 5.98 9.66 7 10 C6.67 11.32 6.34 12.64 6 14 C4.98915735 12.42356682 3.99169489 10.8385483 3 9.25 C2.443125 8.36828125 1.88625 7.4865625 1.3125 6.578125 C0 4 0 4 0 0 Z " fill="#8BD1DE" transform="translate(253,197)"/>
<path d="M0 0 C0.99 2.97 1.98 5.94 3 9 C2.34 9 1.68 9 1 9 C0.67 9.66 0.34 10.32 0 11 C-0.7425 10.814375 -1.485 10.62875 -2.25 10.4375 C-5.00356798 9.99943237 -6.38672389 10.21601717 -9 11 C-12 11 -12 11 -13.875 10.5 C-16.30374152 9.92853141 -18.5134919 9.93093033 -21 10 C-17.60879435 7.73919623 -14.08340445 5.80662564 -10.5 3.875 C-9.82324219 3.50246094 -9.14648438 3.12992188 -8.44921875 2.74609375 C-3.34933036 0 -3.34933036 0 0 0 Z " fill="#1E649C" transform="translate(245,237)"/>
<path d="M0 0 C0.33 0 0.66 0 1 0 C1.95458649 8.35263176 2.11039334 16.59784035 2 25 C0.5 23.6875 0.5 23.6875 -1 22 C-1 21.01 -1 20.02 -1 19 C-1.66 19 -2.32 19 -3 19 C-3.84678051 17.13103445 -4.67686211 15.25449819 -5.5 13.375 C-5.9640625 12.33085937 -6.428125 11.28671875 -6.90625 10.2109375 C-8.02767398 6.91875709 -8.207138 4.44884777 -8 1 C-6.515 1.99 -6.515 1.99 -5 3 C-5 3.99 -5 4.98 -5 6 C-3.68 5.67 -2.36 5.34 -1 5 C-0.67 3.35 -0.34 1.7 0 0 Z " fill="#3A6A97" transform="translate(279,274)"/>
<path d="M0 0 C4.75481646 0.57634139 7.97048212 2.55068521 12 5 C11.01 5.495 11.01 5.495 10 6 C9.34444881 8.52733235 9.34444881 8.52733235 9 11 C8.01 10.67 7.02 10.34 6 10 C6.33 12.97 6.66 15.94 7 19 C2.14603955 13.17524747 -0.6340295 7.60835403 0 0 Z " fill="#4691B5" transform="translate(253,237)"/>
<path d="M0 0 C1.4540625 0.0309375 1.4540625 0.0309375 2.9375 0.0625 C2.9375 1.7125 2.9375 3.3625 2.9375 5.0625 C11.8475 5.0625 20.7575 5.0625 29.9375 5.0625 C30.4325 6.0525 30.4325 6.0525 30.9375 7.0625 C19.3875 7.0625 7.8375 7.0625 -4.0625 7.0625 C-4.0625 0.08290816 -4.0625 0.08290816 0 0 Z " fill="#293D75" transform="translate(205.0625,275.9375)"/>
<path d="M0 0 C10.89 0 21.78 0 33 0 C33 3 33 3 32 5 C31.34 5 30.68 5 30 5 C29.34 6.65 28.68 8.3 28 10 C27.34 10 26.68 10 26 10 C26 10.66 26 11.32 26 12 C25.34 12 24.68 12 24 12 C23.7525 12.763125 23.505 13.52625 23.25 14.3125 C21.89004442 17.2364045 20.68414174 18.30004356 18 20 C17.67 18.68 17.34 17.36 17 16 C17.99 16 18.98 16 20 16 C20 14.68 20 13.36 20 12 C20.99 11.34 21.98 10.68 23 10 C23.33 9.01 23.66 8.02 24 7 C25.32 7 26.64 7 28 7 C28 5.35 28 3.7 28 2 C28.99 1.67 29.98 1.34 31 1 C20.77 1 10.54 1 0 1 C0 0.67 0 0.34 0 0 Z " fill="#90E3E4" transform="translate(312,197)"/>
<path d="M0 0 C1.32 0.66 2.64 1.32 4 2 C4 3.98 4 5.96 4 8 C-5.9 8 -15.8 8 -26 8 C-26 7.34 -26 6.68 -26 6 C-18.19744856 4.78925926 -10.84402334 5.27473468 -3 6 C-2.87625 5.38125 -2.7525 4.7625 -2.625 4.125 C-2 2 -2 2 0 0 Z " fill="#7A78A6" transform="translate(179,295)"/>
<path d="M0 0 C9.24 0 18.48 0 28 0 C29.75120238 4.66987302 31.46230536 9.26863188 33 14 C32.34 14.33 31.68 14.66 31 15 C30.67 13.35 30.34 11.7 30 10 C29.34 11.32 28.68 12.64 28 14 C25.49962266 11.82575883 24.56371414 10.26954202 24 7 C24.66 6.67 25.32 6.34 26 6 C26.33 4.35 26.66 2.7 27 1 C18.09 1 9.18 1 0 1 C0 0.67 0 0.34 0 0 Z " fill="#7BBBD3" transform="translate(200,197)"/>
<path d="M0 0 C1.51880889 0.03513288 3.03769533 0.06706848 4.55664062 0.09570312 C8.26854392 0.17263631 11.9775311 0.2933097 15.6875 0.4375 C15.3575 1.4275 15.0275 2.4175 14.6875 3.4375 C14.6875 2.7775 14.6875 2.1175 14.6875 1.4375 C14.0275 1.4375 13.3675 1.4375 12.6875 1.4375 C12.6875 3.0875 12.6875 4.7375 12.6875 6.4375 C11.3675 6.1075 10.0475 5.7775 8.6875 5.4375 C8.6875 4.1175 8.6875 2.7975 8.6875 1.4375 C5.47787703 1.48971827 2.2708754 1.58486769 -0.9375 1.6875 C-1.84113281 1.70167969 -2.74476563 1.71585938 -3.67578125 1.73046875 C-9.55678265 1.94510384 -12.69284687 2.79424043 -17.3125 6.4375 C-17.9725 6.4375 -18.6325 6.4375 -19.3125 6.4375 C-19.3125 7.0975 -19.3125 7.7575 -19.3125 8.4375 C-19.9725 8.1075 -20.6325 7.7775 -21.3125 7.4375 C-17.22129508 -2.15902026 -9.00644493 -0.36041323 0 0 Z " fill="#4DC1C9" transform="translate(327.3125,197.5625)"/>
<path d="M0 0 C0.99 0.495 0.99 0.495 2 1 C2 1.66 2 2.32 2 3 C3.98 3 5.96 3 8 3 C8.33 3.99 8.66 4.98 9 6 C9.66 6.66 10.32 7.32 11 8 C11.56520003 10.65537372 11.73788198 13.29144713 12 16 C10.0625 15.1875 10.0625 15.1875 8 14 C7.67 13.01 7.34 12.02 7 11 C6.34 10.505 5.68 10.01 5 9.5 C3 8 3 8 2 5 C1.34 5 0.68 5 0 5 C0 3.35 0 1.7 0 0 Z " fill="#1C7BAD" transform="translate(292,269)"/>
<path d="M0 0 C2 3 2 3 3 6 C1.92745123 8.51698632 0.45196548 10.66805545 -1 13 C-1.66 13 -2.32 13 -3 13 C-3.33 14.32 -3.66 15.64 -4 17 C-5.5625 15.8125 -5.5625 15.8125 -7 14 C-6.71263151 11.12631508 -5.91403285 8.74209856 -5 6 C-4.65772583 4.66893378 -4.32248257 3.33599921 -4 2 C-3.01 3.485 -3.01 3.485 -2 5 C-1.34 4.67 -0.68 4.34 0 4 C0 2.68 0 1.36 0 0 Z " fill="#3D87AD" transform="translate(233,211)"/>
<path d="M0 0 C1.4606285 2.64738916 2 3.89448334 2 7 C1.01 7.33 0.02 7.66 -1 8 C-0.67 9.98 -0.34 11.96 0 14 C-0.78375 14.350625 -1.5675 14.70125 -2.375 15.0625 C-5.83547272 17.61665844 -6.14536744 19.88222494 -7 24 C-7.99 24 -8.98 24 -10 24 C-7.79992947 17.76646682 -5.12238587 11.83431629 -2.3046875 5.85546875 C-0.94642993 3.01700708 -0.94642993 3.01700708 0 0 Z " fill="#3B75A0" transform="translate(199,199)"/>
<path d="M0 0 C1.98 0.495 1.98 0.495 4 1 C4 4.63 4 8.26 4 12 C4.66 12 5.32 12 6 12 C5.67 12.99 5.34 13.98 5 15 C4.01 15.33 3.02 15.66 2 16 C0.11517599 12.76117996 -0.38465931 10.03098646 -0.6875 6.3125 C-0.81705078 4.85263672 -0.81705078 4.85263672 -0.94921875 3.36328125 C-0.96597656 2.58339844 -0.98273438 1.80351562 -1 1 C-0.67 0.67 -0.34 0.34 0 0 Z " fill="#205991" transform="translate(218,232)"/>
<path d="M0 0 C3.35594194 1.2632842 5.63290296 2.25915079 8 5 C7 7 7 7 5.875 8.875 C4.8383095 11.39267692 5.10131273 12.48367565 6 15 C4 15 4 15 2.41796875 13.88671875 C0.42710457 11.23771766 0.48874879 9.09072758 0.3125 5.8125 C0.21388672 4.18248047 0.21388672 4.18248047 0.11328125 2.51953125 C0.07589844 1.68808594 0.03851563 0.85664063 0 0 Z " fill="#1D7BAB" transform="translate(259,247)"/>
<path d="M0 0 C-0.33 1.32 -0.66 2.64 -1 4 C8.57 4 18.14 4 28 4 C28.495 4.99 28.495 4.99 29 6 C18.11 6 7.22 6 -4 6 C-4.33 4.68 -4.66 3.36 -5 2 C-5.66 1.67 -6.32 1.34 -7 1 C-4.53721199 -0.231394 -2.7204945 -0.07159196 0 0 Z " fill="#307A9C" transform="translate(319,296)"/>
<path d="M0 0 C3.7952131 1.49097658 5.61042731 3.75700849 8 7 C7.67 7.66 7.34 8.32 7 9 C3.7 9 0.4 9 -3 9 C-2 6 -1 3 0 0 Z " fill="#1B87B1" transform="translate(339,292)"/>
<path d="M0 0 C0.33 0.66 0.66 1.32 1 2 C0.67 2.598125 0.34 3.19625 0 3.8125 C-1.27265288 6.59642818 -0.80300483 8.10918261 0 11 C0.33 11 0.66 11 1 11 C1 12.65 1 14.3 1 16 C-0.65 16 -2.3 16 -4 16 C-4 15.01 -4 14.02 -4 13 C-4.66 13.66 -5.32 14.32 -6 15 C-6.66 14.34 -7.32 13.68 -8 13 C-5.36 8.71 -2.72 4.42 0 0 Z " fill="#489FBE" transform="translate(245,208)"/>
<path d="M0 0 C0.33 0 0.66 0 1 0 C1 3.3 1 6.6 1 10 C-0.32 10.33 -1.64 10.66 -3 11 C-3.33 10.67 -3.66 10.34 -4 10 C-4.33 11.32 -4.66 12.64 -5 14 C-7.21854707 9.37802694 -8.38281159 6.23175837 -8 1 C-6.515 1.99 -6.515 1.99 -5 3 C-5 3.99 -5 4.98 -5 6 C-3.68 5.67 -2.36 5.34 -1 5 C-0.67 3.35 -0.34 1.7 0 0 Z " fill="#3071A6" transform="translate(279,274)"/>
<path d="M0 0 C0.33 0 0.66 0 1 0 C1.45732667 5.71658336 0.52273754 8.48649253 -3 13 C-3.33 12.01 -3.66 11.02 -4 10 C-4.66 10 -5.32 10 -6 10 C-6.08226668 6.95613276 -5.97608217 4.92824652 -5 2 C-3 1.375 -3 1.375 -1 1 C-0.67 0.67 -0.34 0.34 0 0 Z " fill="#353578" transform="translate(190,280)"/>
<path d="M0 0 C2 1 2 1 2.8125 3.375 C3 6 3 6 2 7.6875 C-0.81932455 9.53768174 -3.7470645 10.20211016 -7 11 C-6.40975852 9.34912153 -5.80233994 7.70437593 -5.1875 6.0625 C-4.85105469 5.14597656 -4.51460937 4.22945312 -4.16796875 3.28515625 C-3 1 -3 1 0 0 Z " fill="#1B5E99" transform="translate(197,214)"/>
<path d="M0 0 C0.61875 0.8971875 0.61875 0.8971875 1.25 1.8125 C2.99933019 3.99916274 4.76582846 5.34238886 7 7 C7.99 8.485 7.99 8.485 9 10 C6 12 6 12 3 12 C3 10.35 3 8.7 3 7 C0.2160817 8.39195915 0.02101003 10.15575779 -1 13 C-1.99 12.34 -2.98 11.68 -4 11 C-3.34 9.68 -2.68 8.36 -2 7 C-1.34 7 -0.68 7 0 7 C-0.33 6.01 -0.66 5.02 -1 4 C-0.5625 1.8125 -0.5625 1.8125 0 0 Z " fill="#197CAB" transform="translate(240,219)"/>
<path d="M0 0 C1.9451 2.91765 2.45276317 4.62537285 3 8 C3.66 8 4.32 8 5 8 C5.33 9.65 5.66 11.3 6 13 C3 15 3 15 0 15 C-1.01333399 11.84740535 -0.81126663 10.15492577 0 7 C0.03888349 4.66699067 0.0448635 2.33290199 0 0 Z " fill="#245E96" transform="translate(257,264)"/>
<path d="M0 0 C0.99 2.97 1.98 5.94 3 9 C2.34 9 1.68 9 1 9 C0.67 9.66 0.34 10.32 0 11 C-1 10 -1 10 -1.0625 6.9375 C-1.0315625 5.4834375 -1.0315625 5.4834375 -1 4 C-1.7425 4.37125 -2.485 4.7425 -3.25 5.125 C-6 6 -6 6 -8.3125 5.125 C-8.869375 4.75375 -9.42625 4.3825 -10 4 C-3.375 0 -3.375 0 0 0 Z " fill="#4483A9" transform="translate(245,237)"/>
<path d="M0 0 C-1.60323727 1.77168246 -3.20755139 3.54236892 -4.8125 5.3125 C-5.26431641 5.81201172 -5.71613281 6.31152344 -6.18164062 6.82617188 C-8.40219821 9.27364776 -10.63155925 11.69450785 -13 14 C-13 12.35 -13 10.7 -13 9 C-12.01 9 -11.02 9 -10 9 C-10.33 8.01 -10.66 7.02 -11 6 C-9.68 5.67 -8.36 5.34 -7 5 C-6.67 3.35 -6.34 1.7 -6 0 C-2.25 -1.125 -2.25 -1.125 0 0 Z " fill="#59BCCB" transform="translate(330,219)"/>
<path d="M0 0 C3.96 0 7.92 0 12 0 C12 0.66 12 1.32 12 2 C10.02 2 8.04 2 6 2 C6 3.65 6 5.3 6 7 C5.4225 6.62875 4.845 6.2575 4.25 5.875 C2 4.70833333 2 4.70833333 -0.25 5.875 C-1.11625 6.431875 -1.11625 6.431875 -2 7 C-1.34 4.69 -0.68 2.38 0 0 Z " fill="#1E4183" transform="translate(210,260)"/>
<path d="M0 0 C1.3921875 0.2784375 1.3921875 0.2784375 2.8125 0.5625 C6.01343771 1.24123881 6.01343771 1.24123881 9 0 C9.66 0.33 10.32 0.66 11 1 C11 2.65 11 4.3 11 6 C10.67 4.68 10.34 3.36 10 2 C9.01 2 8.02 2 7 2 C7.33 5.63 7.66 9.26 8 13 C3 6.33333333 3 6.33333333 3 3 C2.34 3 1.68 3 1 3 C0.67 2.01 0.34 1.02 0 0 Z " fill="#4AA5C0" transform="translate(269,227)"/>
<path d="M0 0 C0.66 0.33 1.32 0.66 2 1 C2 3.64 2 6.28 2 9 C-0.31 9 -2.62 9 -5 9 C-4.5504955 7.68445015 -4.09010284 6.37261642 -3.625 5.0625 C-3.36976563 4.33160156 -3.11453125 3.60070312 -2.8515625 2.84765625 C-2 1 -2 1 0 0 Z " fill="#353076" transform="translate(158,292)"/>
<path d="M0 0 C2.475 0.99 2.475 0.99 5 2 C5 2.99 5 3.98 5 5 C5.763125 5.226875 6.52625 5.45375 7.3125 5.6875 C11.15940482 7.56622096 12.15290114 10.30580228 14 14 C13.34 14.66 12.68 15.32 12 16 C10.55836993 14.27427512 9.12186835 12.5442653 7.6875 10.8125 C6.48673828 9.36810547 6.48673828 9.36810547 5.26171875 7.89453125 C3.26888012 5.34411083 1.58938754 2.81357599 0 0 Z " fill="#5698B7" transform="translate(295,278)"/>
<path d="M0 0 C2.31 0 4.62 0 7 0 C7 0.99 7 1.98 7 3 C6.34 3 5.68 3 5 3 C5.33 4.98 5.66 6.96 6 9 C5.34 9 4.68 9 4 9 C3.67 9.66 3.34 10.32 3 11 C0.84694043 7.14243493 -0.39253254 4.44870215 0 0 Z " fill="#3279A8" transform="translate(265,264)"/>
<path d="M0 0 C-0.125 2.25 -0.125 2.25 -1 5 C-4.0625 7.3125 -4.0625 7.3125 -7 9 C-7 8.34 -7 7.68 -7 7 C-7.66 6.67 -8.32 6.34 -9 6 C-4.5 0 -4.5 0 0 0 Z " fill="#3BB1CC" transform="translate(304,212)"/>
<path d="M0 0 C4.875 0.875 4.875 0.875 6 2 C6.04063832 3.66617115 6.042721 5.33388095 6 7 C2.98968256 7.93423645 2.13349732 8.04449911 -1 7 C-0.67 4.69 -0.34 2.38 0 0 Z " fill="#1D1B6D" transform="translate(162,280)"/>
<path d="M0 0 C2.64 0.33 5.28 0.66 8 1 C9.125 4.75 9.125 4.75 8 7 C8.66 7 9.32 7 10 7 C10 7.66 10 8.32 10 9 C10.66 9.33 11.32 9.66 12 10 C11.01 10 10.02 10 9 10 C9 9.34 9 8.68 9 8 C8.34 8 7.68 8 7 8 C5.375 5.5 5.375 5.5 4 3 C0.9254644 3.7763932 0.9254644 3.7763932 -1 6 C-0.67 4.02 -0.34 2.04 0 0 Z " fill="#5E9DBB" transform="translate(284,267)"/>
<path d="M0 0 C0.33 0 0.66 0 1 0 C1 1.98 1 3.96 1 6 C0.01 6.495 0.01 6.495 -1 7 C-1.65555119 9.52733235 -1.65555119 9.52733235 -2 12 C-2.99 11.67 -3.98 11.34 -5 11 C-5.33 8.69 -5.66 6.38 -6 4 C-5.01 4.33 -4.02 4.66 -3 5 C-2.525625 4.175 -2.05125 3.35 -1.5625 2.5 C-1.046875 1.675 -0.53125 0.85 0 0 Z " fill="#20347B" transform="translate(198,260)"/>
<path d="M0 0 C0.66 0.33 1.32 0.66 2 1 C1.49228528 6.96564796 -0.38592128 11.63809899 -3 17 C-3.33 17 -3.66 17 -4 17 C-4.08004482 13.4780279 -4.04005702 10.38018531 -3 7 C-2.34 7 -1.68 7 -1 7 C-1.33 6.01 -1.66 5.02 -2 4 C-1.0625 1.8125 -1.0625 1.8125 0 0 Z " fill="#375287" transform="translate(203,249)"/>
<path d="M0 0 C0.99 0 1.98 0 3 0 C1.24009216 5.91969002 -1.39694605 11.41634992 -4 17 C-4.66 16.01 -5.32 15.02 -6 14 C-5.125 10.9375 -5.125 10.9375 -4 8 C-4 7.34 -4 6.68 -4 6 C-3.01 6 -2.02 6 -1 6 C-0.67 4.02 -0.34 2.04 0 0 Z " fill="#5E7FA5" transform="translate(210,236)"/>
<path d="M0 0 C0.99 0.33 1.98 0.66 3 1 C4.1875 3.5625 4.1875 3.5625 5 6 C5.66 6 6.32 6 7 6 C7 6.66 7 7.32 7 8 C6.01 8 5.02 8 4 8 C4 7.34 4 6.68 4 6 C2.35 6.66 0.7 7.32 -1 8 C-1.625 5.6875 -1.625 5.6875 -2 3 C-1.34 2.01 -0.68 1.02 0 0 Z " fill="#44A0BA" transform="translate(309,254)"/>
<path d="M0 0 C2.5 2.3125 2.5 2.3125 5 5 C5 5.99 5 6.98 5 8 C1.98782888 7.35550393 -0.51655836 6.34977818 -3.25 4.9375 C-3.95640625 4.57527344 -4.6628125 4.21304688 -5.390625 3.83984375 C-5.92171875 3.56269531 -6.4528125 3.28554687 -7 3 C-5.68 2.34 -4.36 1.68 -3 1 C-2.67 1.99 -2.34 2.98 -2 4 C-1.34 2.68 -0.68 1.36 0 0 Z " fill="#5EA2BB" transform="translate(267,233)"/>
<path d="M0 0 C0.99 0.33 1.98 0.66 3 1 C2.25 8.625 2.25 8.625 0 12 C-0.99 9.03 -1.98 6.06 -3 3 C-2.34 3 -1.68 3 -1 3 C-0.67 2.01 -0.34 1.02 0 0 Z " fill="#44659B" transform="translate(242,288)"/>
<path d="M0 0 C0.66 0.33 1.32 0.66 2 1 C2 1.99 2 2.98 2 4 C3.65 4.33 5.3 4.66 7 5 C7 5.66 7 6.32 7 7 C6.34 7 5.68 7 5 7 C4.67 7.99 4.34 8.98 4 10 C4 9.34 4 8.68 4 8 C-1.28 8 -6.56 8 -12 8 C-12 7.67 -12 7.34 -12 7 C-7.38 6.67 -2.76 6.34 2 6 C1.34 4.02 0.68 2.04 0 0 Z " fill="#8AA6CA" transform="translate(222,252)"/>
<path d="M0 0 C8.91 0 17.82 0 27 0 C26.67 1.32 26.34 2.64 26 4 C25.34 3.34 24.68 2.68 24 2 C21.57753405 1.62904292 21.57753405 1.62904292 18.7734375 1.5859375 C17.2265625 1.52792969 17.2265625 1.52792969 15.6484375 1.46875 C14.02808594 1.42234375 14.02808594 1.42234375 12.375 1.375 C11.28703125 1.33632812 10.1990625 1.29765625 9.078125 1.2578125 C6.38558835 1.16333753 3.69306243 1.07777569 1 1 C0.67 1.66 0.34 2.32 0 3 C0 2.01 0 1.02 0 0 Z " fill="#2A789B" transform="translate(200,198)"/>
<path d="M0 0 C1.9375 1.125 1.9375 1.125 4 3 C4.75 6.1875 4.75 6.1875 5 9 C4.01 9 3.02 9 2 9 C1.34 8.34 0.68 7.68 0 7 C-2.06874034 6.3574765 -2.06874034 6.3574765 -4 6 C-3.34 5.67 -2.68 5.34 -2 5 C-1.27840576 3.35636866 -0.60648579 1.68949614 0 0 Z " fill="#2983A7" transform="translate(263,228)"/>
<path d="M0 0 C2 3 2 3 3 6 C1.0625 8.6875 1.0625 8.6875 -1 11 C-3.0625 8.75 -3.0625 8.75 -5 6 C-4.75 3.6875 -4.75 3.6875 -4 2 C-3.01 3.485 -3.01 3.485 -2 5 C-1.34 4.67 -0.68 4.34 0 4 C0 2.68 0 1.36 0 0 Z " fill="#4996B9" transform="translate(233,211)"/>
<path d="M0 0 C0 3.92998307 -1.27858835 6.49342071 -3 10 C-6 12 -6 12 -9 12 C-9 11.34 -9 10.68 -9 10 C-8.34 10 -7.68 10 -7 10 C-6.773125 9.46375 -6.54625 8.9275 -6.3125 8.375 C-4.56617944 5.21499137 -2.3597151 2.7323017 0 0 Z " fill="#57AFC7" transform="translate(294,219)"/>
<path d="M0 0 C0.66 0.33 1.32 0.66 2 1 C2.625 3.0625 2.625 3.0625 3 5 C-0.01031744 5.93423645 -0.86650268 6.04449911 -4 5 C-5.66621616 4.96125079 -7.33394172 4.9549714 -9 5 C-6.06626269 3.04417512 -3.21783702 1.43775696 0 0 Z " fill="#4C84AF" transform="translate(233,242)"/>
<path d="M0 0 C1.32 0.33 2.64 0.66 4 1 C1.69 3.97 -0.62 6.94 -3 10 C-3.66 8.68 -4.32 7.36 -5 6 C-3.35 4.02 -1.7 2.04 0 0 Z " fill="#5AB6C9" transform="translate(313,233)"/>
<path d="M0 0 C1.32 0.66 2.64 1.32 4 2 C4 3.32 4 4.64 4 6 C1.69 6 -0.62 6 -3 6 C-2.42655063 3.13275314 -2.1385485 2.1385485 0 0 Z " fill="#1D1968" transform="translate(179,295)"/>
<path d="M0 0 C2.36543716 2.36543716 3.27541323 4.57067205 4.625 7.625 C5.07101563 8.62789063 5.51703125 9.63078125 5.9765625 10.6640625 C6.31429688 11.43492187 6.65203125 12.20578125 7 13 C6.01 13.495 6.01 13.495 5 14 C5 13.34 5 12.68 5 12 C4.01 11.67 3.02 11.34 2 11 C0.60955102 7.12137916 0 4.13537997 0 0 Z " fill="#6197B6" transform="translate(250,250)"/>
<path d="M0 0 C1.65 0 3.3 0 5 0 C4.67 1.98 4.34 3.96 4 6 C2.35 5.67 0.7 5.34 -1 5 C-0.67 3.35 -0.34 1.7 0 0 Z " fill="#192C70" transform="translate(203,276)"/>
<path d="M0 0 C2 2 2 2 2 6 C2.66 6.33 3.32 6.66 4 7 C2.35 7.33 0.7 7.66 -1 8 C-1.99 6.02 -2.98 4.04 -4 2 C-3.01 1.67 -2.02 1.34 -1 1 C-0.67 0.67 -0.34 0.34 0 0 Z " fill="#3AA1BE" transform="translate(269,218)"/>
<path d="M0 0 C0.66 0.33 1.32 0.66 2 1 C2 1.66 2 2.32 2 3 C2.99 2.67 3.98 2.34 5 2 C5 5 5 5 4 7 C3.38125 6.814375 2.7625 6.62875 2.125 6.4375 C-0.04160178 5.76313824 -0.04160178 5.76313824 -2 7 C-1.125 1.125 -1.125 1.125 0 0 Z M1 3 C2 5 2 5 2 5 Z " fill="#1A3576" transform="translate(178,249)"/>
<path d="M0 0 C0.66 0 1.32 0 2 0 C2.33 0.99 2.66 1.98 3 3 C2.67 3.66 2.34 4.32 2 5 C2.99 5.33 3.98 5.66 5 6 C2.69 6.33 0.38 6.66 -2 7 C-1.125 1.125 -1.125 1.125 0 0 Z " fill="#3282AC" transform="translate(241,226)"/>
<path d="M0 0 C0.66 0 1.32 0 2 0 C2.33 0.99 2.66 1.98 3 3 C0.625 6.1875 0.625 6.1875 -2 9 C-2.33 9 -2.66 9 -3 9 C-3.25532751 5.93606987 -3.21861333 4.36766788 -1.625 1.6875 C-0.820625 0.8521875 -0.820625 0.8521875 0 0 Z " fill="#1B9EBD" transform="translate(295,219)"/>
<path d="M0 0 C3.48247874 1.16082625 3.88819244 1.90932476 5.75 4.9375 C6.19859375 5.64777344 6.6471875 6.35804688 7.109375 7.08984375 C7.40328125 7.72019531 7.6971875 8.35054687 8 9 C7.67 9.66 7.34 10.32 7 11 C6.01 10.67 5.02 10.34 4 10 C4 8.35 4 6.7 4 5 C2.68 4.34 1.36 3.68 0 3 C0 2.01 0 1.02 0 0 Z " fill="#66ABBE" transform="translate(255,215)"/>
<path d="M0 0 C1.32 1.32 2.64 2.64 4 4 C3.67 4.66 3.34 5.32 3 6 C3.39938767 8.09821215 3.39938767 8.09821215 4 10 C2 10 2 10 0.3125 8.9375 C-1 7 -1 7 -0.6875 3.3125 C-0.460625 2.219375 -0.23375 1.12625 0 0 Z " fill="#2D7FAE" transform="translate(261,252)"/>
<path d="M0 0 C-0.33 1.32 -0.66 2.64 -1 4 C-0.34 4.33 0.32 4.66 1 5 C-0.98 5 -2.96 5 -5 5 C-5 4.01 -5 3.02 -5 2 C-5.66 1.67 -6.32 1.34 -7 1 C-4.53721199 -0.231394 -2.7204945 -0.07159196 0 0 Z " fill="#1E76A6" transform="translate(319,296)"/>
<path d="M0 0 C1.32 0 2.64 0 4 0 C4 0.66 4 1.32 4 2 C4.66 2.33 5.32 2.66 6 3 C4.0625 3.5625 4.0625 3.5625 2 4 C1.67 3.67 1.34 3.34 1 3 C0.67 4.98 0.34 6.96 0 9 C-0.66 8.67 -1.32 8.34 -2 8 C-1.125 1.125 -1.125 1.125 0 0 Z " fill="#1C4282" transform="translate(245,292)"/>
<path d="M0 0 C5.875 4.625 5.875 4.625 7 8 C6.01 8.495 6.01 8.495 5 9 C5 8.34 5 7.68 5 7 C3.68 6.67 2.36 6.34 1 6 C0.67 4.02 0.34 2.04 0 0 Z " fill="#5CA7C2" transform="translate(340,292)"/>
<path d="M0 0 C2.64752004 2.57784846 4.94432065 4.91648098 7 8 C5.02 8 3.04 8 1 8 C-0.35439668 5.29120665 -0.06501451 2.99066732 0 0 Z " fill="#53A7BC" transform="translate(316,262)"/>
<path d="M0 0 C2.91517292 1.07401108 4.77810176 1.77810176 7 4 C6.34 4 5.68 4 5 4 C4.67 4.99 4.34 5.98 4 7 C3.34 6.34 2.68 5.68 2 5 C2.33 4.34 2.66 3.68 3 3 C2.01 3.33 1.02 3.66 0 4 C-0.66 3.34 -1.32 2.68 -2 2 C-1.34 1.34 -0.68 0.68 0 0 Z " fill="#4F96BA" transform="translate(258,239)"/>
<path d="M0 0 C-0.1875 1.875 -0.1875 1.875 -1 4 C-3.3125 5.375 -3.3125 5.375 -6 6 C-8.3125 5.125 -8.3125 5.125 -10 4 C-3.375 0 -3.375 0 0 0 Z " fill="#6C9EBE" transform="translate(245,237)"/>
<path d="M0 0 C0.66 1.32 1.32 2.64 2 4 C1.01 4.495 1.01 4.495 0 5 C-0.73075648 7.3140622 -1.40138258 9.64828869 -2 12 C-2.99 12 -3.98 12 -5 12 C-1.85714286 3.42857143 -1.85714286 3.42857143 0 0 Z " fill="#5782A8" transform="translate(194,211)"/>
<path d="M0 0 C1.9451 2.91765 2.45276317 4.62537285 3 8 C3.66 8 4.32 8 5 8 C4.67 8.99 4.34 9.98 4 11 C4 10.34 4 9.68 4 9 C3.01 9 2.02 9 1 9 C0.67 9.66 0.34 10.32 0 11 C0 7.37 0 3.74 0 0 Z " fill="#638EB2" transform="translate(257,264)"/>
<path d="M0 0 C0.93423645 3.01031744 1.04449911 3.86650268 0 7 C-0.34820041 8.66362417 -0.68404492 10.32995171 -1 12 C-1.99 11.67 -2.98 11.34 -4 11 C-3.21681311 7.08406554 -1.60820142 3.63593365 0 0 Z " fill="#5F71A5" transform="translate(209,260)"/>
<path d="M0 0 C0.99 0.33 1.98 0.66 3 1 C3.33 3.97 3.66 6.94 4 10 C1.38952199 8.694761 1.31933577 7.64173426 0.375 4.9375 C0.11460937 4.20402344 -0.14578125 3.47054688 -0.4140625 2.71484375 C-0.60742188 2.14894531 -0.80078125 1.58304688 -1 1 C-0.67 0.67 -0.34 0.34 0 0 Z " fill="#1867A1" transform="translate(248,253)"/>
<path d="M0 0 C1.5625 1.8125 1.5625 1.8125 3 4 C2.67 4.99 2.34 5.98 2 7 C1.01 7 0.02 7 -1 7 C-1 6.34 -1 5.68 -1 5 C-1.66 5 -2.32 5 -3 5 C-3.33 4.01 -3.66 3.02 -4 2 C-2.68 2.33 -1.36 2.66 0 3 C0 2.01 0 1.02 0 0 Z " fill="#48A2C2" transform="translate(253,209)"/>
<path d="M0 0 C0.66 0.33 1.32 0.66 2 1 C1.02433888 2.16959987 0.044375 3.33561177 -0.9375 4.5 C-1.48277344 5.1496875 -2.02804687 5.799375 -2.58984375 6.46875 C-3.05519531 6.9740625 -3.52054687 7.479375 -4 8 C-4.33 8 -4.66 8 -5 8 C-5 6.02 -5 4.04 -5 2 C-2.625 0.9375 -2.625 0.9375 0 0 Z " fill="#6BCBD4" transform="translate(328,218)"/>
<path d="M0 0 C0.66 0 1.32 0 2 0 C1.54917531 1.46067199 1.08906463 2.91848032 0.625 4.375 C0.36976563 5.18710937 0.11453125 5.99921875 -0.1484375 6.8359375 C-1 9 -1 9 -3 11 C-3.33 9.68 -3.66 8.36 -4 7 C-3.01 6.67 -2.02 6.34 -1 6 C-1.020625 5.195625 -1.04125 4.39125 -1.0625 3.5625 C-1 1 -1 1 0 0 Z " fill="#495A87" transform="translate(197,266)"/>
<path d="M0 0 C0.99 0 1.98 0 3 0 C3.80967438 2.91482778 4.21845993 4.46113217 3.0625 7.3125 C2.5365625 8.1478125 2.5365625 8.1478125 2 9 C0.14223235 5.86501708 -0.20140476 3.62528568 0 0 Z " fill="#257FB0" transform="translate(280,264)"/>
<path d="M0 0 C0.33 0 0.66 0 1 0 C1 1.65 1 3.3 1 5 C1.66 5 2.32 5 3 5 C2.67 5.99 2.34 6.98 2 8 C1.01 8.33 0.02 8.66 -1 9 C-1.66 7.35 -2.32 5.7 -3 4 C-2.01 4 -1.02 4 0 4 C0 2.68 0 1.36 0 0 Z " fill="#6993B4" transform="translate(221,239)"/>
<path d="M0 0 C2.475 0.99 2.475 0.99 5 2 C4.01 2.495 4.01 2.495 3 3 C3 4.98 3 6.96 3 9 C2.01 9.495 2.01 9.495 1 10 C0.67 6.7 0.34 3.4 0 0 Z " fill="#218AAD" transform="translate(277,236)"/>
<path d="M0 0 C1.98 0.66 3.96 1.32 6 2 C3.61426621 3.89213369 1.92824652 5.02391783 -1 6 C-1.042721 4.33388095 -1.04063832 2.66617115 -1 1 C-0.67 0.67 -0.34 0.34 0 0 Z " fill="#498EB7" transform="translate(236,231)"/>
<path d="M0 0 C0.99 0.33 1.98 0.66 3 1 C3 2.66666667 3 4.33333333 3 6 C1.68 6.33 0.36 6.66 -1 7 C-0.67 4.69 -0.34 2.38 0 0 Z " fill="#2D2B70" transform="translate(162,280)"/>
<path d="M0 0 C0.66 0.66 1.32 1.32 2 2 C1.625 4.625 1.625 4.625 1 7 C-0.32 7.33 -1.64 7.66 -3 8 C-1.125 2.25 -1.125 2.25 0 0 Z " fill="#565E96" transform="translate(172,259)"/>
<path d="M0 0 C0.99 0 1.98 0 3 0 C3 1.98 3 3.96 3 6 C2.01 6 1.02 6 0 6 C-1 3 -1 3 0 0 Z " fill="#196CA7" transform="translate(241,241)"/>
<path d="M0 0 C1.98 0.495 1.98 0.495 4 1 C3.34 2.65 2.68 4.3 2 6 C1.01 5.67 0.02 5.34 -1 5 C-0.67 3.35 -0.34 1.7 0 0 Z " fill="#39A2C2" transform="translate(305,240)"/>
<path d="M0 0 C2.475 0.495 2.475 0.495 5 1 C4.34 1.66 3.68 2.32 3 3 C2.83312552 5.58354218 2.83312552 5.58354218 3 8 C2.01 7.67 1.02 7.34 0 7 C0 4.69 0 2.38 0 0 Z " fill="#5993AB" transform="translate(253,237)"/>
<path d="M0 0 C2.475 0.99 2.475 0.99 5 2 C5 2.99 5 3.98 5 5 C5.99 5.33 6.98 5.66 8 6 C7.34 6.66 6.68 7.32 6 8 C4.9970458 6.85675161 3.99770973 5.71032809 3 4.5625 C2.443125 3.92441406 1.88625 3.28632813 1.3125 2.62890625 C0 1 0 1 0 0 Z " fill="#619EB8" transform="translate(295,278)"/>
<path d="M0 0 C0.66 0.33 1.32 0.66 2 1 C1.67 2.32 1.34 3.64 1 5 C0.34 5 -0.32 5 -1 5 C-1 5.66 -1 6.32 -1 7 C-3.475 6.01 -3.475 6.01 -6 5 C-6 4.67 -6 4.34 -6 4 C-4.35 3.67 -2.7 3.34 -1 3 C-0.67 2.01 -0.34 1.02 0 0 Z " fill="#39A0C1" transform="translate(283,231)"/>
<path d="M0 0 C1.32 0 2.64 0 4 0 C4.33 2.97 4.66 5.94 5 9 C2.64046906 6.64046906 2.50858587 5.22104383 2 2 C1.34 2 0.68 2 0 2 C0 1.34 0 0.68 0 0 Z " fill="#6190B5" transform="translate(213,233)"/>
<path d="M0 0 C1.32 0.66 2.64 1.32 4 2 C3.67 2.66 3.34 3.32 3 4 C2.32650839 5.66392045 1.6590841 7.33032028 1 9 C0.67 8.01 0.34 7.02 0 6 C-0.66 5.67 -1.32 5.34 -2 5 C-1.34 3.35 -0.68 1.7 0 0 Z " fill="#3794B6" transform="translate(261,225)"/>
<path d="M0 0 C1.4606285 2.64738916 2 3.89448334 2 7 C0.68 7.33 -0.64 7.66 -2 8 C-1.47731534 5.23723823 -0.89130413 2.6739124 0 0 Z " fill="#5798BC" transform="translate(199,199)"/>
<path d="M0 0 C0.99 0.99 1.98 1.98 3 3 C3 5 3 5 1.125 7.125 C-1 9 -1 9 -3 9 C-2.01 6.03 -1.02 3.06 0 0 Z " fill="#5E659B" transform="translate(168,267)"/>
<path d="M0 0 C0.99 0.33 1.98 0.66 3 1 C2.01 3.97 1.02 6.94 0 10 C-0.33 10 -0.66 10 -1 10 C-1.08004482 6.4780279 -1.04005702 3.38018531 0 0 Z " fill="#4F6190" transform="translate(200,256)"/>
<path d="M0 0 C0.33 0.66 0.66 1.32 1 2 C0.67 2.99 0.34 3.98 0 5 C0.66 5.33 1.32 5.66 2 6 C0.35 6.66 -1.3 7.32 -3 8 C-2.45276317 4.62537285 -1.9451 2.91765 0 0 Z " fill="#73A0B4" transform="translate(230,233)"/>
<path d="M0 0 C0 4.01474237 -1.66781767 5.81975137 -4 9 C-4.33 9 -4.66 9 -5 9 C-5 7.35 -5 5.7 -5 4 C-4.01 4 -3.02 4 -2 4 C-2 3.01 -2 2.02 -2 1 C-1.34 0.67 -0.68 0.34 0 0 Z " fill="#5084AC" transform="translate(227,228)"/>
<path d="M0 0 C0.66 0 1.32 0 2 0 C2.66 1.98 3.32 3.96 4 6 C3.01 6.33 2.02 6.66 1 7 C0.67 7.99 0.34 8.98 0 10 C0.185625 9.278125 0.37125 8.55625 0.5625 7.8125 C1.01995307 4.87173027 0.73516357 2.85896942 0 0 Z " fill="#1F6FA1" transform="translate(224,222)"/>
<path d="M0 0 C1.485 0.99 1.485 0.99 3 2 C3 2.99 3 3.98 3 5 C3.99 5.33 4.98 5.66 6 6 C5.67 7.32 5.34 8.64 5 10 C4.16121545 8.71186658 3.32913217 7.41936744 2.5 6.125 C2.0359375 5.40570313 1.571875 4.68640625 1.09375 3.9453125 C0 2 0 2 0 0 Z " fill="#6EC1D0" transform="translate(254,201)"/>
<path d="M0 0 C0.66 0 1.32 0 2 0 C2.66 1.65 3.32 3.3 4 5 C2.35 5.33 0.7 5.66 -1 6 C-1 2 -1 2 0 0 Z " fill="#71B4C6" transform="translate(248,203)"/>
<path d="M0 0 C-0.99 1.485 -0.99 1.485 -2 3 C-2.66 3 -3.32 3 -4 3 C-4.33 3.99 -4.66 4.98 -5 6 C-5.33 6 -5.66 6 -6 6 C-6 4.02 -6 2.04 -6 0 C-3 -1 -3 -1 0 0 Z " fill="#6FD5D8" transform="translate(346,199)"/>
<path d="M0 0 C0.99 0.33 1.98 0.66 3 1 C2.75 2.875 2.75 2.875 2 5 C-0.0625 6.25 -0.0625 6.25 -2 7 C-1.34 4.69 -0.68 2.38 0 0 Z " fill="#1E3A76" transform="translate(210,260)"/>
<path d="M0 0 C1.32 0.66 2.64 1.32 4 2 C4 2.99 4 3.98 4 5 C2.02 4.34 0.04 3.68 -2 3 C-1.34 2.01 -0.68 1.02 0 0 Z " fill="#258BB1" transform="translate(249,207)"/>
<path d="M0 0 C1.32 0 2.64 0 4 0 C4 1.65 4 3.3 4 5 C2.68 4.67 1.36 4.34 0 4 C0 2.68 0 1.36 0 0 Z " fill="#23C4CC" transform="translate(336,199)"/>
<path d="M0 0 C2.52588702 2.36292656 3.88820837 3.66462511 5 7 C4.01 7 3.02 7 2 7 C2 6.34 2 5.68 2 5 C1.01 4.67 0.02 4.34 -1 4 C-0.67 2.68 -0.34 1.36 0 0 Z " fill="#5CAEC3" transform="translate(323,270)"/>
<path d="M0 0 C1.32 0.66 2.64 1.32 4 2 C4 2.66 4 3.32 4 4 C2.35 4.33 0.7 4.66 -1 5 C-0.67 3.35 -0.34 1.7 0 0 Z " fill="#19216C" transform="translate(170,266)"/>
<path d="M0 0 C0.99 0.66 1.98 1.32 3 2 C2.01 3.485 2.01 3.485 1 5 C0.01 5 -0.98 5 -2 5 C-2 3.68 -2 2.36 -2 1 C-1.34 0.67 -0.68 0.34 0 0 Z " fill="#306896" transform="translate(223,246)"/>
<path d="M0 0 C0.66 0.33 1.32 0.66 2 1 C2 1.66 2 2.32 2 3 C2.99 3 3.98 3 5 3 C4.67 3.99 4.34 4.98 4 6 C1.525 5.01 1.525 5.01 -1 4 C-0.67 2.68 -0.34 1.36 0 0 Z " fill="#217AAA" transform="translate(256,239)"/>
</svg>
